<svg width="878" height="284" viewBox="0 0 878 284" fill="none" xmlns="http://www.w3.org/2000/svg">
<g id="bar">
<path id="Vector" d="M72.4556 279H47.5444C46.8699 278.999 46.2232 278.76 45.7462 278.333C45.2691 277.907 45.0008 277.329 45 276.726V174.274C45.0008 173.671 45.2691 173.093 45.7462 172.667C46.2232 172.24 46.8699 172.001 47.5444 172H72.4556C73.1301 172.001 73.7768 172.24 74.2538 172.667C74.7309 173.093 74.9992 173.671 75 174.274V276.726C74.9992 277.329 74.7309 277.907 74.2538 278.333C73.7768 278.76 73.1301 278.999 72.4556 279V279Z" fill="white" fill-opacity="0.7"/>
<path id="Vector_2" d="M117.456 279H92.5444C91.8699 278.999 91.2232 278.759 90.7462 278.332C90.2691 277.906 90.0008 277.327 90 276.723V203.277C90.0008 202.673 90.2691 202.094 90.7462 201.668C91.2232 201.241 91.8699 201.001 92.5444 201H117.456C118.13 201.001 118.777 201.241 119.254 201.668C119.731 202.094 119.999 202.673 120 203.277V276.723C119.999 277.327 119.731 277.906 119.254 278.332C118.777 278.759 118.13 278.999 117.456 279V279Z" fill="white" fill-opacity="0.7"/>
<path id="Vector_3" d="M162.456 278.999H137.544C136.885 279.012 136.247 278.792 135.77 278.387C135.293 277.981 135.016 277.425 135 276.838V163.162C135.016 162.575 135.293 162.019 135.77 161.613C136.247 161.208 136.885 160.988 137.544 161.001H162.456C163.115 160.988 163.753 161.208 164.23 161.613C164.707 162.019 164.984 162.575 165 163.162V276.838C164.984 277.425 164.707 277.981 164.23 278.387C163.753 278.792 163.115 279.012 162.456 278.999Z" fill="white" fill-opacity="0.7"/>
<path id="Vector_4" d="M27.4556 279H2.54443C1.86987 278.999 1.22316 278.759 0.746151 278.332C0.269146 277.906 0.000805936 277.327 0 276.723V203.277C0.000805936 202.673 0.269146 202.094 0.746151 201.668C1.22316 201.241 1.86987 201.001 2.54443 201H27.4556C28.1301 201.001 28.7768 201.241 29.2538 201.668C29.7309 202.094 29.9992 202.673 30 203.277V276.723C29.9992 277.327 29.7309 277.906 29.2538 278.332C28.7768 278.759 28.1301 278.999 27.4556 279V279Z" fill="white" fill-opacity="0.7"/>
<path id="Vector_5" d="M207.456 279H182.544C181.87 278.999 181.223 278.76 180.746 278.334C180.269 277.909 180.001 277.331 180 276.729V142.271C180.001 141.669 180.269 141.092 180.746 140.666C181.223 140.24 181.87 140.001 182.544 140H207.456C208.13 140.001 208.777 140.24 209.254 140.666C209.731 141.092 209.999 141.669 210 142.271V276.729C209.999 277.331 209.731 277.909 209.254 278.334C208.777 278.76 208.13 278.999 207.456 279V279Z" fill="white" fill-opacity="0.7"/>
<path id="Vector_6" d="M834.456 279H809.544C808.87 278.999 808.223 278.777 807.746 278.382C807.269 277.987 807.001 277.451 807 276.893V152.107C807.001 151.549 807.269 151.013 807.746 150.618C808.223 150.223 808.87 150.001 809.544 150H834.456C835.13 150.001 835.777 150.223 836.254 150.618C836.731 151.013 836.999 151.549 837 152.107V276.893C836.999 277.451 836.731 277.987 836.254 278.382C835.777 278.777 835.13 278.999 834.456 279V279Z" fill="white" fill-opacity="0.7"/>
<path id="Vector_7" d="M875.456 281H850.544C849.87 281 849.223 280.884 848.746 280.679C848.269 280.474 848.001 280.196 848 279.905V215.095C848.001 214.804 848.269 214.526 848.746 214.321C849.223 214.116 849.87 214 850.544 214H875.456C876.13 214 876.777 214.116 877.254 214.321C877.731 214.526 877.999 214.804 878 215.095V279.905C877.999 280.196 877.731 280.474 877.254 280.679C876.777 280.884 876.13 281 875.456 281V281Z" fill="white" fill-opacity="0.7"/>
<path id="Vector_8" d="M789.456 279H764.544C763.87 278.999 763.223 278.813 762.746 278.483C762.269 278.152 762.001 277.703 762 277.236V172.764C762.001 172.297 762.269 171.848 762.746 171.517C763.223 171.187 763.87 171.001 764.544 171H789.456C790.13 171.001 790.777 171.187 791.254 171.517C791.731 171.848 791.999 172.297 792 172.764V277.236C791.999 277.703 791.731 278.152 791.254 278.483C790.777 278.813 790.13 278.999 789.456 279V279Z" fill="white" fill-opacity="0.7"/>
<path id="Vector_9" d="M744.456 279H719.544C718.87 278.999 718.223 278.76 717.746 278.334C717.269 277.909 717.001 277.331 717 276.729V142.271C717.001 141.669 717.269 141.092 717.746 140.666C718.223 140.24 718.87 140.001 719.544 140H744.456C745.13 140.001 745.777 140.24 746.254 140.666C746.731 141.092 746.999 141.669 747 142.271V276.729C746.999 277.331 746.731 277.909 746.254 278.334C745.777 278.76 745.13 278.999 744.456 279V279Z" fill="white" fill-opacity="0.7"/>
<path id="Vector_10" d="M703.456 284H678.544C677.87 283.999 677.223 283.656 676.746 283.047C676.269 282.437 676.001 281.611 676 280.749V88.2509C676.001 87.389 676.269 86.5627 676.746 85.9532C677.223 85.3438 677.87 85.001 678.544 85H703.456C704.13 85.001 704.777 85.3438 705.254 85.9532C705.731 86.5627 705.999 87.389 706 88.2509V280.749C705.999 281.611 705.731 282.437 705.254 283.047C704.777 283.656 704.13 283.999 703.456 284V284Z" fill="white" fill-opacity="0.7"/>
<path id="Vector_11" d="M477.456 278H452.544C451.87 277.999 451.223 277.667 450.746 277.076C450.269 276.484 450.001 275.683 450 274.847V88.1529C450.001 87.317 450.269 86.5156 450.746 85.9245C451.223 85.3334 451.87 85.0009 452.544 85H477.456C478.13 85.0009 478.777 85.3334 479.254 85.9245C479.731 86.5156 479.999 87.317 480 88.1529V274.847C479.999 275.683 479.731 276.484 479.254 277.076C478.777 277.667 478.13 277.999 477.456 278V278Z" fill="white" fill-opacity="0.7"/>
<path id="Vector_12" d="M522.456 280H497.544C496.87 279.999 496.223 279.573 495.746 278.817C495.269 278.06 495.001 277.035 495 275.965V37.0351C495.001 35.9652 495.269 34.9396 495.746 34.1831C496.223 33.4267 496.87 33.0012 497.544 33H522.456C523.13 33.0012 523.777 33.4267 524.254 34.1831C524.731 34.9396 524.999 35.9652 525 37.0351V275.965C524.999 277.035 524.731 278.06 524.254 278.817C523.777 279.573 523.13 279.999 522.456 280V280Z" fill="white" fill-opacity="0.7"/>
<path id="Vector_13" d="M567.456 279H542.544C541.87 278.999 541.223 278.76 540.746 278.334C540.269 277.909 540.001 277.331 540 276.729V142.271C540.001 141.669 540.269 141.092 540.746 140.666C541.223 140.24 541.87 140.001 542.544 140H567.456C568.13 140.001 568.777 140.24 569.254 140.666C569.731 141.092 569.999 141.669 570 142.271V276.729C569.999 277.331 569.731 277.909 569.254 278.334C568.777 278.76 568.13 278.999 567.456 279V279Z" fill="white" fill-opacity="0.7"/>
<path id="Vector_14" d="M612.456 280H587.544C586.87 279.999 586.223 279.674 585.746 279.095C585.269 278.516 585.001 277.731 585 276.912V94.0876C585.001 93.269 585.269 92.4841 585.746 91.9053C586.223 91.3265 586.87 91.0009 587.544 91H612.456C613.13 91.0009 613.777 91.3265 614.254 91.9053C614.731 92.4841 614.999 93.269 615 94.0876V276.912C614.999 277.731 614.731 278.516 614.254 279.095C613.777 279.674 613.13 279.999 612.456 280V280Z" fill="white" fill-opacity="0.7"/>
<path id="Vector_15" d="M658.456 279H633.544C632.87 278.999 632.223 278.541 631.746 277.726C631.269 276.911 631.001 275.807 631 274.655V17.3455C631.001 16.1933 631.269 15.0888 631.746 14.2742C632.223 13.4595 632.87 13.0013 633.544 13H658.456C659.13 13.0013 659.777 13.4595 660.254 14.2742C660.731 15.0888 660.999 16.1933 661 17.3455V274.655C660.999 275.807 660.731 276.911 660.254 277.726C659.777 278.541 659.13 278.999 658.456 279V279Z" fill="white" fill-opacity="0.7"/>
<path id="Vector_16" d="M432.456 279H407.544C406.87 278.999 406.223 278.611 405.746 277.922C405.269 277.233 405.001 276.299 405 275.324V57.6757C405.001 56.7011 405.269 55.7668 405.746 55.0778C406.223 54.3887 406.87 54.0011 407.544 54H432.456C433.13 54.0011 433.777 54.3887 434.254 55.0778C434.731 55.7668 434.999 56.7011 435 57.6757V275.324C434.999 276.299 434.731 277.233 434.254 277.922C433.777 278.611 433.13 278.999 432.456 279V279Z" fill="white" fill-opacity="0.7"/>
<path id="Vector_17" d="M387.456 279H362.544C361.87 278.999 361.223 278.518 360.746 277.664C360.269 276.809 360.001 275.651 360 274.442V4.55784C360.001 3.34941 360.269 2.19088 360.746 1.33642C361.223 0.481967 361.87 0.00134471 362.544 0H387.456C388.13 0.00134471 388.777 0.481967 389.254 1.33642C389.731 2.19088 389.999 3.34941 390 4.55784V274.442C389.999 275.651 389.731 276.809 389.254 277.664C388.777 278.518 388.13 278.999 387.456 279V279Z" fill="white" fill-opacity="0.7"/>
<path id="Vector_18" d="M342.456 284H317.544C316.87 283.999 316.223 283.656 315.746 283.047C315.269 282.437 315.001 281.611 315 280.749V88.2509C315.001 87.389 315.269 86.5627 315.746 85.9532C316.223 85.3438 316.87 85.001 317.544 85H342.456C343.13 85.001 343.777 85.3438 344.254 85.9532C344.731 86.5627 344.999 87.389 345 88.2509V280.749C344.999 281.611 344.731 282.437 344.254 283.047C343.777 283.656 343.13 283.999 342.456 284V284Z" fill="white" fill-opacity="0.7"/>
<path id="Vector_19" d="M297.456 279H272.544C271.87 278.999 271.223 278.611 270.746 277.922C270.269 277.233 270.001 276.299 270 275.324V57.6757C270.001 56.7011 270.269 55.7668 270.746 55.0778C271.223 54.3887 271.87 54.0011 272.544 54H297.456C298.13 54.0011 298.777 54.3887 299.254 55.0778C299.731 55.7668 299.999 56.7011 300 57.6757V275.324C299.999 276.299 299.731 277.233 299.254 277.922C298.777 278.611 298.13 278.999 297.456 279V279Z" fill="white" fill-opacity="0.7"/>
<path id="Vector_20" d="M252.456 279H227.544C226.87 278.999 226.223 278.694 225.746 278.152C225.269 277.61 225.001 276.875 225 276.108V104.892C225.001 104.125 225.269 103.39 225.746 102.848C226.223 102.306 226.87 102.001 227.544 102H252.456C253.13 102.001 253.777 102.306 254.254 102.848C254.731 103.39 254.999 104.125 255 104.892V276.108C254.999 276.875 254.731 277.61 254.254 278.152C253.777 278.694 253.13 278.999 252.456 279V279Z" fill="white" fill-opacity="0.7"/>
</g>
</svg>
