<svg width="328" height="443" viewBox="0 0 328 443" fill="none" xmlns="http://www.w3.org/2000/svg">
<path d="M224.362 67.2761C239.791 67.2761 252.298 54.7687 252.298 39.3401C252.298 23.9114 239.791 11.4041 224.362 11.4041C208.934 11.4041 196.426 23.9114 196.426 39.3401C196.426 54.7687 208.934 67.2761 224.362 67.2761Z" fill="#FFB8B8"/>
<path d="M222.556 195.953C222.017 194.274 221.838 192.5 222.032 190.747C222.227 188.995 222.789 187.303 223.683 185.783C224.577 184.263 225.782 182.948 227.219 181.927C228.656 180.905 230.293 180.198 232.022 179.853C232.57 179.748 233.125 179.681 233.682 179.653L263.109 132.424L236.233 106.868C235.193 105.895 234.358 104.725 233.775 103.426C233.192 102.126 232.874 100.724 232.838 99.3002C232.803 97.8766 233.052 96.4602 233.569 95.1336C234.087 93.807 234.864 92.5968 235.854 91.5735C236.845 90.5502 238.029 89.7344 239.338 89.1736C240.647 88.6127 242.055 88.3181 243.479 88.3069C244.903 88.2957 246.315 88.5681 247.632 89.1083C248.95 89.6485 250.147 90.4455 251.153 91.4531L288.266 128.053L288.341 128.144C289.489 129.891 290.043 131.961 289.922 134.048C289.8 136.135 289.009 138.127 287.665 139.728L246.433 188.487C246.556 188.878 246.659 189.275 246.74 189.677C247.085 191.406 247.061 193.188 246.668 194.907C246.276 196.626 245.526 198.243 244.465 199.651C243.405 201.06 242.058 202.228 240.515 203.08C238.971 203.932 237.265 204.449 235.508 204.595C235.153 204.626 234.8 204.642 234.448 204.642C231.803 204.631 229.23 203.785 227.094 202.225C224.958 200.665 223.37 198.47 222.556 195.953V195.953Z" fill="#FFB8B8"/>
<path d="M178.352 428.138H164.407L157.774 374.352H178.354L178.352 428.138Z" fill="#FFB8B8"/>
<path d="M182.476 442.225H136.376V441.082C136.376 438.709 136.844 436.359 137.752 434.167C138.66 431.975 139.991 429.983 141.669 428.305C143.347 426.627 145.339 425.296 147.531 424.388C149.723 423.48 152.073 423.013 154.446 423.013H182.477L182.476 442.225Z" fill="#2F2E41"/>
<path d="M316.951 408.859L304.969 415.994L271.752 373.174L289.437 362.645L316.951 408.859Z" fill="#FFB8B8"/>
<path d="M288.091 442.436L287.509 441.459C285.057 437.341 284.342 432.418 285.52 427.773C286.698 423.128 289.673 419.141 293.79 416.689L317.875 402.348L327.701 418.848L288.091 442.436Z" fill="#2F2E41"/>
<path d="M156.014 404.452C146.673 294.458 141.114 192.274 175.264 150.59L175.528 150.267L232.996 173.255L233.091 173.46C233.285 173.882 252.397 215.923 247.939 244.201L262.114 309.407L308.333 386.798C308.705 387.421 308.941 388.116 309.024 388.837C309.107 389.558 309.036 390.288 308.815 390.98C308.594 391.671 308.229 392.307 307.744 392.847C307.259 393.386 306.664 393.817 306 394.109L285.914 402.946C284.781 403.439 283.508 403.508 282.328 403.139C281.148 402.77 280.141 401.989 279.49 400.938L229.213 318.952L200.813 256.069C200.659 255.727 200.397 255.446 200.067 255.268C199.737 255.09 199.357 255.026 198.987 255.085C198.617 255.145 198.277 255.325 198.019 255.597C197.761 255.869 197.6 256.218 197.561 256.591L181.821 404.564C181.69 405.821 181.096 406.985 180.156 407.831C179.216 408.676 177.996 409.143 176.732 409.141H161.116C159.835 409.134 158.603 408.649 157.659 407.782C156.716 406.915 156.129 405.728 156.014 404.452V404.452Z" fill="#2F2E41"/>
<path d="M175.458 151.462L175.184 151.331L175.141 151.031C172.994 136.006 175.535 119.311 182.693 101.411C186.222 92.6508 192.78 85.4497 201.173 81.1191C209.566 76.7885 219.235 75.6167 228.419 77.817V77.817C233.71 79.1206 238.672 81.5088 242.991 84.8302C247.31 88.1516 250.893 92.3339 253.511 97.1121C256.096 101.841 257.671 107.056 258.136 112.425C258.601 117.795 257.945 123.202 256.211 128.305C247.187 154.693 235.481 179.383 235.363 179.629L235.118 180.144L175.458 151.462Z" fill="#E00F73"/>
<path d="M134.107 213.775C133.712 210.74 134.419 207.664 136.1 205.107C137.781 202.55 140.324 200.681 143.267 199.84L197.006 96.6691C197.696 95.4777 198.618 94.4368 199.718 93.608C200.817 92.7791 202.072 92.179 203.407 91.8433C204.742 91.5076 206.131 91.443 207.492 91.6534C208.853 91.8637 210.158 92.3447 211.329 93.068C212.501 93.7912 213.515 94.7421 214.313 95.8642C215.111 96.9864 215.676 98.2572 215.974 99.6014C216.272 100.946 216.298 102.336 216.05 103.69C215.801 105.044 215.284 106.335 214.528 107.486L159.519 209.938C159.634 210.561 159.701 211.193 159.719 211.826C159.766 213.559 159.462 215.283 158.826 216.895C158.19 218.507 157.235 219.974 156.017 221.208C154.8 222.441 153.346 223.416 151.743 224.074C150.139 224.731 148.419 225.058 146.686 225.034V225.034C144.786 225.007 142.916 224.559 141.209 223.723C139.503 222.888 138.003 221.684 136.816 220.2C135.33 218.353 134.39 216.128 134.102 213.775H134.107Z" fill="#FFB8B8"/>
<path d="M190.49 23.559L234.849 23.559V4.22305C225.113 0.355049 215.585 -2.93495 209.826 4.22305C204.698 4.22305 199.78 6.26024 196.154 9.88644C192.527 13.5126 190.49 18.4308 190.49 23.559Z" fill="#2F2E41"/>
<path d="M237.305 0.81105C263.824 0.81105 271.246 34.0511 271.246 52.8041C271.246 63.2621 266.517 67.0041 259.084 68.2681L256.459 54.2681L250.312 68.8681C248.224 68.8781 246.031 68.8381 243.757 68.7961L241.673 64.5041L237.025 68.719C218.409 68.747 203.364 71.46 203.364 52.802C203.364 34.052 209.874 0.81105 237.305 0.81105Z" fill="#2F2E41"/>
<path d="M237.715 29.2V3.33301C237.715 3.02663 237.654 2.72327 237.537 2.44022C237.42 2.15716 237.248 1.89996 237.031 1.68332C236.815 1.46668 236.557 1.29483 236.274 1.17758C235.991 1.06034 235.688 1 235.382 1L230.715 1C230.409 1 230.106 1.06034 229.823 1.17758C229.54 1.29483 229.282 1.46668 229.066 1.68332C228.849 1.89996 228.677 2.15716 228.56 2.44022C228.443 2.72327 228.383 3.02663 228.383 3.33301V27.64C224.933 28.2 221.794 29.9673 219.526 32.6267C217.258 35.2861 216.008 38.6646 216 42.1596C215.992 45.6547 217.225 49.0391 219.481 51.7091C221.736 54.3792 224.867 56.1613 228.314 56.7376C231.761 57.314 235.301 56.647 238.302 54.8558C241.303 53.0645 243.571 50.2654 244.7 46.9577C245.829 43.65 245.746 40.0488 244.466 36.7964C243.187 33.5439 240.794 30.8518 237.714 29.2H237.715Z" fill="#E00F73"/>
<path d="M231.494 49.21C235.358 49.21 238.492 46.0769 238.492 42.212C238.492 38.3471 235.358 35.214 231.494 35.214C227.629 35.214 224.496 38.3471 224.496 42.212C224.496 46.0769 227.629 49.21 231.494 49.21Z" fill="white"/>
<path d="M70.5 321C80.165 321 88 317.194 88 312.5C88 307.806 80.165 304 70.5 304C60.835 304 53 307.806 53 312.5C53 317.194 60.835 321 70.5 321Z" fill="#F1F1F1"/>
<path d="M102.5 330C112.165 330 120 326.194 120 321.5C120 316.806 112.165 313 102.5 313C92.835 313 85 316.806 85 321.5C85 326.194 92.835 330 102.5 330Z" fill="#F1F1F1"/>
<path d="M52.5 377C62.165 377 70 373.194 70 368.5C70 363.806 62.165 360 52.5 360C42.835 360 35 363.806 35 368.5C35 373.194 42.835 377 52.5 377Z" fill="#F1F1F1"/>
<path d="M74.2208 442.074L75.172 440.315C62.4186 433.417 46.5462 424.834 38.256 410.747C30.0836 396.861 29.9003 378.005 37.7774 361.536C44.4811 347.521 56.7953 334.964 73.3885 325.224C76.6615 323.302 80.0973 321.481 83.42 319.72C91.4515 315.464 99.7564 311.062 106.604 304.817C116.036 296.216 123.172 281.783 117.853 268.926C116.104 264.823 113.239 261.292 109.584 258.734C105.929 256.177 101.63 254.696 97.1759 254.459L97.0631 256.456C101.144 256.672 105.082 258.028 108.432 260.37C111.781 262.712 114.407 265.945 116.011 269.704C120.953 281.651 114.172 295.209 105.257 303.34C98.5961 309.413 90.4049 313.755 82.4835 317.953C79.1419 319.724 75.6864 321.556 72.3758 323.499C55.4374 333.442 42.8495 346.297 35.9732 360.673C27.8128 377.734 28.027 397.31 36.5323 411.762C45.1051 426.328 61.2489 435.059 74.2208 442.074Z" fill="#F1F1F1"/>
<path d="M84.5 265C94.165 265 102 261.194 102 256.5C102 251.806 94.165 248 84.5 248C74.835 248 67 251.806 67 256.5C67 261.194 74.835 265 84.5 265Z" fill="#F1F1F1"/>
<path d="M17.5 377C27.165 377 35 373.194 35 368.5C35 363.806 27.165 360 17.5 360C7.83502 360 0 363.806 0 368.5C0 373.194 7.83502 377 17.5 377Z" fill="#F1F1F1"/>
</svg>
