<svg width="57" height="56" viewBox="0 0 57 56" fill="none" xmlns="http://www.w3.org/2000/svg">
<path d="M38.4992 6.58124C35.5486 3.63982 31.7829 1.5663 27.6445 0.604334C23.5062 -0.357635 19.1671 -0.168054 15.1374 1.15078C11.1076 2.46961 7.55457 4.86289 4.89578 8.04938C2.23699 11.2359 0.582933 15.0831 0.128016 19.1391C-0.3269 23.195 0.436241 27.2911 2.32771 30.9459C4.21917 34.6007 7.16039 37.6624 10.8057 39.7711C14.451 41.8799 18.649 42.9481 22.9062 42.8502C27.1634 42.7523 31.303 41.4924 34.8385 39.2185L51.0071 55.3313C51.1061 55.4303 51.2246 55.5097 51.3558 55.5647C51.4869 55.6197 51.6281 55.6494 51.7713 55.652C51.9145 55.6546 52.0568 55.63 52.19 55.5797C52.3232 55.5295 52.4447 55.4544 52.5476 55.359L56.5753 51.6581C56.6787 51.5633 56.7615 51.4498 56.8189 51.3241C56.8764 51.1985 56.9073 51.0632 56.91 50.926C56.9127 50.7889 56.8871 50.6526 56.8346 50.525C56.7821 50.3974 56.7038 50.2809 56.6042 50.1824L40.4405 34.0604C43.5398 29.9919 45.0439 25.0076 44.6889 19.9825C44.3339 14.9574 42.1424 10.2127 38.4992 6.58124ZM33.4622 32.4875C31.181 34.588 28.3007 35.9935 25.1857 36.526C22.0707 37.0586 18.8608 36.6944 15.9619 35.4795C13.0629 34.2646 10.6051 32.2536 8.89927 29.7007C7.1934 27.1478 6.31606 24.1677 6.37818 21.1372C6.4403 18.1067 7.43912 15.1619 9.2483 12.6751C11.0575 10.1883 13.5958 8.27127 16.5423 7.16634C19.4888 6.06141 22.7112 5.81824 25.8019 6.46754C28.8927 7.11684 31.7131 8.62946 33.9065 10.8142C36.8454 13.744 38.4495 17.6719 38.3662 21.7343C38.2829 25.7968 36.519 29.6613 33.4622 32.4783V32.4875Z" fill="#72D7F7"/>
</svg>
