<svg width="238" height="295" viewBox="0 0 238 295" fill="none" xmlns="http://www.w3.org/2000/svg">
<g filter="url(#filter0_d_3:37)">
<path d="M84.752 54V210.301C80.2989 208.623 75.6466 207.783 70.9687 207.813C51.1197 207.813 35 224.258 35 247.497C35 270.737 51.1197 287 70.9687 287C90.8178 287 107.037 269.888 107.037 245.06V136.519H211.715V210.301C207.262 208.623 202.61 207.783 197.932 207.813C178.083 207.813 161.963 224.258 161.963 247.497C161.963 270.737 178.083 287 197.932 287C217.781 287 234 269.888 234 245.06V54H84.752ZM211.719 112.25H107.041V80.096H211.719V112.25Z" fill="#E00F73"/>
</g>
<g filter="url(#filter1_d_3:37)">
<path d="M55.939 0V107.859C49.3333 103.369 41.6545 101.574 34.0942 102.751C26.5339 103.929 19.5148 108.013 14.1262 114.37C8.73765 120.727 5.28085 129.002 4.29227 137.911C3.30369 146.819 4.83861 155.863 8.65885 163.638C12.4791 171.414 18.371 177.487 25.4203 180.914C32.4696 184.342 40.2821 184.932 47.6454 182.594C55.0088 180.256 61.5112 175.12 66.1436 167.984C70.7761 160.847 73.2796 152.109 73.2655 143.125V40.8722H108V0H55.939Z" fill="#E00F73"/>
</g>
<defs>
<filter id="filter0_d_3:37" x="31" y="54" width="207" height="241" filterUnits="userSpaceOnUse" color-interpolation-filters="sRGB">
<feFlood flood-opacity="0" result="BackgroundImageFix"/>
<feColorMatrix in="SourceAlpha" type="matrix" values="0 0 0 0 0 0 0 0 0 0 0 0 0 0 0 0 0 0 127 0" result="hardAlpha"/>
<feOffset dy="4"/>
<feGaussianBlur stdDeviation="2"/>
<feComposite in2="hardAlpha" operator="out"/>
<feColorMatrix type="matrix" values="0 0 0 0 0 0 0 0 0 0 0 0 0 0 0 0 0 0 0.25 0"/>
<feBlend mode="normal" in2="BackgroundImageFix" result="effect1_dropShadow_3:37"/>
<feBlend mode="normal" in="SourceGraphic" in2="effect1_dropShadow_3:37" result="shape"/>
</filter>
<filter id="filter1_d_3:37" x="0" y="0" width="112" height="192" filterUnits="userSpaceOnUse" color-interpolation-filters="sRGB">
<feFlood flood-opacity="0" result="BackgroundImageFix"/>
<feColorMatrix in="SourceAlpha" type="matrix" values="0 0 0 0 0 0 0 0 0 0 0 0 0 0 0 0 0 0 127 0" result="hardAlpha"/>
<feOffset dy="4"/>
<feGaussianBlur stdDeviation="2"/>
<feComposite in2="hardAlpha" operator="out"/>
<feColorMatrix type="matrix" values="0 0 0 0 0 0 0 0 0 0 0 0 0 0 0 0 0 0 0.25 0"/>
<feBlend mode="normal" in2="BackgroundImageFix" result="effect1_dropShadow_3:37"/>
<feBlend mode="normal" in="SourceGraphic" in2="effect1_dropShadow_3:37" result="shape"/>
</filter>
</defs>
</svg>
